<svg width="30" height="30" viewBox="0 0 30 30" fill="none" xmlns="http://www.w3.org/2000/svg">
<g clip-path="url(#clip0)">
<path d="M14.8775 0C6.67582 0 0 6.67582 0 14.8775C0 23.0792 6.67582 29.7551 14.8775 29.7551C23.0792 29.7551 29.7551 23.0792 29.7551 14.8775C29.7377 6.67582 23.0792 0 14.8775 0ZM14.8775 28.0037C7.6295 28.0037 1.73398 22.1082 1.73398 14.8602C1.73398 7.61216 7.6295 1.73398 14.8775 1.73398C22.1256 1.73398 28.0211 7.6295 28.0211 14.8775C28.0211 22.1256 22.1082 28.0037 14.8775 28.0037Z" fill="white"/>
<path d="M25.1353 10.718C24.5812 9.40811 23.7882 8.23185 22.7782 7.2218C21.7682 6.21176 20.5919 5.41885 19.282 4.8647C17.9253 4.29095 16.4845 4 15 4C13.5155 4 12.0747 4.29095 10.718 4.8647C9.40811 5.41885 8.23185 6.21176 7.2218 7.2218C6.21176 8.23185 5.41885 9.40811 4.8647 10.718C4.29095 12.0747 4 13.5155 4 15C4 16.4845 4.29095 17.9253 4.8647 19.282C5.41885 20.5919 6.21176 21.7682 7.2218 22.7782C8.23185 23.7882 9.40811 24.5812 10.718 25.1353C12.0747 25.7091 13.5155 26 15 26C16.4845 26 17.9253 25.7091 19.282 25.1353C20.5919 24.5812 21.7682 23.7882 22.7782 22.7782C23.7882 21.7682 24.5812 20.5919 25.1353 19.282C25.7091 17.9253 26 16.4845 26 15C26 13.5155 25.7091 12.0747 25.1353 10.718ZM21.5182 21.5182C19.9889 23.0475 18.0166 23.973 15.8909 24.1757V23.0373H14.1091V24.1757C11.9834 23.973 10.0111 23.0475 8.48181 21.5182C6.95224 19.9886 6.0267 18.0161 5.82434 15.8899H6.96191V14.1081H5.82459C6.02721 11.9826 6.95275 10.0109 8.48207 8.48156C10.0114 6.95224 11.9836 6.0267 14.1093 5.82408V6.96064H15.8912V5.82434C18.0169 6.02696 19.9891 6.95249 21.5184 8.48181C23.0475 10.0109 23.973 11.9829 24.1759 14.1083H23.0386V15.8902H24.1762C23.9735 18.0161 23.048 19.9886 21.5182 21.5182Z" fill="white"/>
<path d="M17.3809 11.5292L15.891 13.0191V8.09155H14.1092V13.5401C13.6179 13.8405 13.29 14.3819 13.29 15C13.29 15.9444 14.0557 16.71 15.0001 16.71C15.9445 16.71 16.7101 15.9444 16.7101 15C16.7101 14.9114 16.7035 14.8243 16.6905 14.7393L18.6409 12.789L17.3809 11.5292Z" fill="white"/>
</g>
<defs>
<clipPath id="clip0">
<rect width="29.7377" height="29.7377" fill="white"/>
</clipPath>
</defs>
</svg>
