<svg width="31" height="31" viewBox="0 0 31 31" fill="none" xmlns="http://www.w3.org/2000/svg">
<g clip-path="url(#clip0)">
<path d="M15.2303 0.352539C7.0286 0.352539 0.352783 7.02835 0.352783 15.2301C0.352783 23.4318 7.0286 30.1076 15.2303 30.1076C23.432 30.1076 30.1078 23.4318 30.1078 15.2301C30.1078 7.02835 23.432 0.352539 15.2303 0.352539ZM15.2303 28.3563C7.98229 28.3563 2.08676 22.4608 2.08676 15.2127C2.08676 7.9647 7.98229 2.08652 15.2303 2.08652C22.4783 2.08652 28.3739 7.98204 28.3739 15.2301C28.3739 22.4781 22.461 28.3563 15.2303 28.3563Z" fill="white"/>
<path d="M15.2304 4.54871C9.35219 4.54871 4.56641 9.33448 4.56641 15.2127C4.56641 21.0909 9.35219 25.8766 15.2304 25.8766C21.1086 25.8766 25.8943 21.0909 25.8943 15.2127C25.8943 9.33448 21.1086 4.54871 15.2304 4.54871ZM15.2304 24.16C10.3059 24.16 6.30038 20.1545 6.30038 15.23C6.30038 10.3055 10.3059 6.30002 15.2304 6.30002C20.1549 6.30002 24.1604 10.3055 24.1604 15.23C24.1604 20.1545 20.1549 24.16 15.2304 24.16Z" fill="white"/>
<path d="M16.0973 10.583V9.97614C16.9297 10.3229 17.5192 11.1379 17.5192 12.0916H19.2532C19.2532 10.1842 17.9007 8.57161 16.0973 8.1728V7.23645H14.3634V8.15546C12.56 8.55427 11.2075 10.1669 11.2075 12.0742C11.2075 13.9816 12.56 15.5942 14.3634 15.993V16.0971H15.2304C16.4962 16.0971 17.5192 17.1201 17.5192 18.3859C17.5192 19.3396 16.9297 20.1546 16.0973 20.5014V19.8945H14.3634V20.5014C13.5311 20.1546 12.9415 19.3396 12.9415 18.3859H11.2075C11.2075 20.2933 12.56 21.9059 14.3634 22.3047V23.2411H16.0973V22.3047C17.9007 21.9059 19.2532 20.2933 19.2532 18.3859C19.2532 16.4786 17.9007 14.866 16.0973 14.4671V14.3631H15.2304C13.9645 14.3631 12.9415 13.3401 12.9415 12.0742C12.9415 11.1206 13.5311 10.3056 14.3634 9.9588V10.583H16.0973Z" fill="white"/>
</g>
<defs>
<clipPath id="clip0">
<rect width="29.7377" height="29.7377" fill="white" transform="translate(0.352783 0.352539)"/>
</clipPath>
</defs>
</svg>
