<svg width="31" height="31" viewBox="0 0 31 31" fill="none" xmlns="http://www.w3.org/2000/svg">
<g clip-path="url(#clip0)">
<path d="M15.2303 0.352661C7.0286 0.352661 0.352783 7.02848 0.352783 15.2302C0.352783 23.4319 7.0286 30.1077 15.2303 30.1077C23.432 30.1077 30.1078 23.4319 30.1078 15.2302C30.0905 7.02848 23.432 0.352661 15.2303 0.352661ZM15.2303 28.3564C7.98229 28.3564 2.08676 22.4609 2.08676 15.2129C2.08676 7.96482 7.98229 2.08664 15.2303 2.08664C22.4783 2.08664 28.3739 7.98216 28.3739 15.2302C28.3739 22.4782 22.461 28.3564 15.2303 28.3564Z" fill="white"/>
<path d="M15.0002 15.2852C17.7221 15.2852 19.9369 12.9782 19.9369 10.1427C19.9369 7.30719 17.7221 5 15.0002 5C12.2782 5 10.0637 7.30694 10.0637 10.1425C10.0637 12.978 12.2782 15.2852 15.0002 15.2852ZM15.0002 6.74202C16.8002 6.74202 18.2646 8.26754 18.2646 10.1425C18.2646 12.0174 16.8002 13.5429 15.0002 13.5429C13.2001 13.5429 11.736 12.0174 11.736 10.1425C11.736 8.26754 13.2001 6.74202 15.0002 6.74202Z" fill="white"/>
<path d="M21.8681 23.0092C21.4403 19.7925 20.4754 16.9771 19.1512 15.0818L18.6794 14.4066L18.0119 14.8692C17.1187 15.4884 16.0772 15.8157 15 15.8157C13.9226 15.8157 12.881 15.4884 11.9881 14.8692L11.3206 14.4066L10.8488 15.0818C9.52461 16.9771 8.55972 19.7927 8.13187 23.0092L8 23.9999H22L21.8681 23.0092ZM11.7857 16.7598C12.5301 17.153 13.3333 17.4054 14.1639 17.5069V22.2579H9.94004C10.318 20.0913 10.9565 18.1895 11.7857 16.7598ZM15.8361 22.2579V17.5067C16.6667 17.4051 17.4699 17.153 18.2143 16.7596C19.0435 18.1893 19.682 20.0911 20.06 22.2577H15.8361V22.2579Z" fill="white"/>
</g>
<defs>
<clipPath id="clip0">
<rect width="29.7377" height="29.7377" fill="white" transform="translate(0.352783 0.352661)"/>
</clipPath>
</defs>
</svg>
