<svg width="31" height="31" viewBox="0 0 31 31" fill="none" xmlns="http://www.w3.org/2000/svg">
<g clip-path="url(#clip0)">
<path d="M15.2303 0.352539C7.0286 0.352539 0.352783 7.02835 0.352783 15.2301C0.352783 23.4318 7.0286 30.1076 15.2303 30.1076C23.432 30.1076 30.1078 23.4318 30.1078 15.2301C30.1078 7.02835 23.432 0.352539 15.2303 0.352539ZM15.2303 28.3563C7.98229 28.3563 2.08676 22.4608 2.08676 15.2127C2.08676 7.9647 7.98229 2.08652 15.2303 2.08652C22.4783 2.08652 28.3739 7.98204 28.3739 15.2301C28.3739 22.4781 22.461 28.3563 15.2303 28.3563Z" fill="white"/>
<g clip-path="url(#clip1)">
<path d="M25.258 12.286H23.6148V8.66037C23.6147 7.74487 22.8333 7 21.8727 7H9.12735C8.16684 7 7.38534 7.74487 7.38534 8.66037V12.286H5.74218C4.7815 12.286 4 13.0308 4 13.9465V19.3557C4 20.2621 4.76574 21.0009 5.71306 21.0158V22.0002H7.25481V21.0163H23.7452V22.0002H25.2869V21.0158C26.2343 21.0009 27 20.2621 27 19.3557V13.9465C27 13.0308 26.2185 12.286 25.258 12.286ZM8.92709 8.66037C8.92709 8.55506 9.01703 8.4695 9.12735 8.4695H14.5983V9.5184H16.4015V8.4695H21.8725C21.983 8.4695 22.0727 8.55522 22.0727 8.66037V12.286H8.92675V8.66037H8.92709ZM25.4583 19.3557C25.4583 19.4611 25.3683 19.5466 25.258 19.5466H5.74201C5.63151 19.5466 5.54175 19.4609 5.54175 19.3557V13.9465C5.54175 13.8412 5.63169 13.7556 5.74201 13.7556H7.38517H23.6147H25.2578C25.3683 13.7556 25.4581 13.8414 25.4581 13.9465V19.3557H25.4583Z" fill="white"/>
</g>
</g>
<defs>
<clipPath id="clip0">
<rect width="29.7377" height="29.7377" fill="white" transform="translate(0.352783 0.352539)"/>
</clipPath>
<clipPath id="clip1">
<rect width="23" height="15" fill="white" transform="translate(4 7)"/>
</clipPath>
</defs>
</svg>
