<svg width="19" height="21" viewBox="-1 0 19 21" xmlns="http://www.w3.org/2000/svg"><path d="M7.334 4.439a.667.667 0 00-.417 1.16l4.07 3.735H.701a.74.74 0 00-.07 0 .694.694 0 00-.632.702c.019.349.353.65.702.632h10.284l-4.07 3.729a.667.667 0 10.904.979l5.333-4.889a.667.667 0 000-.98L7.82 4.62a.667.667 0 00-.486-.18M11.743.002a.667.667 0 10.07 1.333h4.666v17.332h-4.666a.667.667 0 00-.02 1.334h5.353a.667.667 0 00.666-.667V.668a.667.667 0 00-.666-.666h-5.333a.635.635 0 00-.07 0" fill="#00000" fill-rule="evenodd"></path></svg>