<svg id="Layer_1" data-name="Layer 1" xmlns="http://www.w3.org/2000/svg" viewBox="0 0 33.45 33.45"><defs><style>.cls-1{fill:#414e52;}</style></defs><title>login_profile</title><path class="cls-1" d="M18.11,1A16.73,16.73,0,1,0,34.83,17.77,16.76,16.76,0,0,0,18.11,1Zm0,31.48A14.72,14.72,0,0,1,6.84,27.28a11.3,11.3,0,0,1,2-4.54,12.6,12.6,0,0,0,18.55,0,11,11,0,0,1,2,4.54A14.71,14.71,0,0,1,18.11,32.52Zm10-12-.8-.87-.72.95a10.62,10.62,0,0,1-17,0l-.72-.95-.8.87a13.49,13.49,0,0,0-2.73,4.68,14.78,14.78,0,1,1,27.54-7.46,14.6,14.6,0,0,1-2,7.46A14,14,0,0,0,28.11,20.55Z" transform="translate(-1.38 -1.04)"/><path class="cls-1" d="M18.11,5.25a9,9,0,1,0,9,9A9,9,0,0,0,18.11,5.25Zm0,16.05a7,7,0,1,1,7-7A7.05,7.05,0,0,1,18.11,21.3Z" transform="translate(-1.38 -1.04)"/></svg>