<svg width="25" height="25" viewBox="0 0 25 25" fill="none" xmlns="http://www.w3.org/2000/svg">
<g clip-path="url(#clip0)">
<path d="M12.5 0C5.59638 0 0 5.6298 0 12.5746C0 18.8513 4.57179 24.0546 10.5497 25V16.207H7.37705V12.5746H10.5497V9.80239C10.5497 6.6534 12.4152 4.91186 15.2699 4.91186C16.6408 4.91186 18.0681 5.16065 18.0681 5.16065V8.25277H16.4924C14.9378 8.25277 14.4573 9.21951 14.4573 10.2147V12.5746H17.9268L17.3756 16.207H14.4644V24.9929C20.4423 24.0475 25.0141 18.8442 25.0141 12.5675C25 5.6298 19.4036 0 12.5 0Z" fill="#414E52"/>
</g>
<defs>
<clipPath id="clip0">
<rect width="25" height="25" fill="white"/>
</clipPath>
</defs>
</svg>
