<svg width="25" height="25" viewBox="0 0 25 25" fill="none" xmlns="http://www.w3.org/2000/svg">
<path d="M15.4259 6.53613H9.57509C7.90748 6.53613 6.55078 7.89283 6.55078 9.56044V15.4112C6.55078 17.0788 7.90748 18.4355 9.57509 18.4355H15.4259C17.0935 18.4355 18.4502 17.0788 18.4502 15.4112V9.56044C18.4502 7.89283 17.0935 6.53613 15.4259 6.53613ZM12.5641 16.0896C10.5714 16.0896 8.95327 14.4714 8.95327 12.4788C8.95327 10.4861 10.5714 8.86796 12.5641 8.86796C14.5567 8.86796 16.1749 10.4861 16.1749 12.4788C16.1678 14.4714 14.5497 16.0896 12.5641 16.0896ZM16.3798 9.48978C15.9064 9.48978 15.5177 9.10821 15.5177 8.62771C15.5177 8.15428 15.8993 7.76564 16.3798 7.76564C16.8532 7.76564 17.2418 8.14721 17.2418 8.62771C17.2418 9.10821 16.8532 9.48978 16.3798 9.48978Z" fill="#414E52"/>
<path d="M12.5636 10.1682C11.2917 10.1682 10.2529 11.2069 10.2529 12.4788C10.2529 13.7507 11.2917 14.7895 12.5636 14.7895C13.8355 14.7895 14.8742 13.7507 14.8742 12.4788C14.8742 11.2069 13.8355 10.1682 12.5636 10.1682Z" fill="#414E52"/>
<path d="M12.5 0C5.59638 0 0 5.59638 0 12.5C0 19.4036 5.59638 25 12.5 25C19.4036 25 25 19.4036 25 12.5C25 5.59638 19.4036 0 12.5 0ZM19.8276 15.4112C19.8276 17.842 17.8491 19.8135 15.4254 19.8135H9.57462C7.14387 19.8135 5.17241 17.842 5.17241 15.4112V9.56049C5.17241 7.12973 7.14387 5.15828 9.57462 5.15828H15.4254C17.8561 5.15828 19.8276 7.12973 19.8276 9.56049V15.4112Z" fill="#414E52"/>
</svg>
