<svg width="25" height="25" viewBox="0 0 25 25" fill="none" xmlns="http://www.w3.org/2000/svg">
<g clip-path="url(#clip0)">
<path d="M12.5 0C5.59638 0 0 5.59638 0 12.5C0 17.5876 3.03844 21.9545 7.39825 23.9047C7.38412 23.5514 7.36998 23.2052 7.37705 22.8519C7.41945 21.6365 7.56784 21.2196 9.13652 14.6269C9.15772 14.528 9.13652 14.4432 9.10119 14.3513C8.72668 13.3409 8.64896 12.3092 8.98106 11.2705C9.68768 9.02346 12.2386 8.84681 12.6837 10.7052C12.9593 11.8499 12.2315 13.355 11.6733 15.5738C11.214 17.4039 13.3691 18.7041 15.2063 17.3686C16.9022 16.1391 17.5664 13.1854 17.4392 11.0868C17.1919 6.91068 12.6131 6.01328 9.70888 7.35585C6.38072 8.89627 5.62465 13.0229 7.12267 14.9096C7.31345 15.1498 7.46184 15.2982 7.39825 15.5384C7.29932 15.9129 7.21453 16.2945 7.10854 16.669C7.03081 16.9517 6.79763 17.0506 6.51498 16.9375C5.96382 16.7114 5.49746 16.3581 5.12295 15.8988C3.84398 14.316 3.48361 11.1928 5.17241 8.54296C7.05201 5.61051 10.5285 4.4234 13.7083 4.78378C17.5028 5.21481 19.8982 7.80808 20.3505 10.7476C20.5554 12.0902 20.407 15.3901 18.5274 17.7219C16.3652 20.407 12.8604 20.5837 11.2422 18.9373C11.115 18.8101 11.0161 18.6617 10.896 18.5133C10.8748 18.5769 10.8607 18.6263 10.8465 18.6758C10.0692 21.7213 9.98446 22.3926 9.18598 23.8058C9.06586 24.0249 8.92453 24.2298 8.79734 24.4418C9.97032 24.8092 11.214 25 12.5071 25C19.4107 25 25.0071 19.4036 25.0071 12.5C25 5.59638 19.4036 0 12.5 0Z" fill="#414E52"/>
</g>
<defs>
<clipPath id="clip0">
<rect width="25" height="25" fill="white"/>
</clipPath>
</defs>
</svg>
