<svg width="22" height="22" viewBox="0 0 22 22" fill="none" xmlns="http://www.w3.org/2000/svg">
<path d="M18.3925 14.8617C17.309 14.8617 16.3391 15.3345 15.678 16.0822L7.12634 11.784C7.1843 11.5313 7.21505 11.2691 7.21505 11C7.21505 10.7309 7.1843 10.4687 7.12634 10.216L15.6768 5.91777C16.3391 6.66553 17.309 7.1383 18.3925 7.1383C20.3843 7.1383 22 5.53979 22 3.56915C22 1.59851 20.3843 0 18.3925 0C16.4006 0 14.7849 1.59851 14.7849 3.56915C14.7849 3.8383 14.8157 4.10043 14.8737 4.35319L6.32204 8.65138C5.66086 7.90362 4.69097 7.43085 3.60753 7.43085C1.6157 7.43085 0 9.02936 0 11C0 12.9706 1.6157 14.5691 3.60753 14.5691C4.69097 14.5691 5.66086 14.0964 6.32204 13.3486L14.8725 17.6468C14.8157 17.8996 14.7838 18.1617 14.7838 18.4309C14.7838 20.4015 16.3995 22 18.3913 22C20.3831 22 21.9988 20.4015 21.9988 18.4309C22 16.4602 20.3843 14.8617 18.3925 14.8617Z" fill="#414E52"/>
</svg>
