<svg width="25" height="25" viewBox="0 0 25 25" fill="none" xmlns="http://www.w3.org/2000/svg">
<path d="M12.5 0C5.59638 0 0 5.59638 0 12.5C0 19.4036 5.59638 25 12.5 25C19.4036 25 25 19.4036 25 12.5C25 5.59638 19.4036 0 12.5 0ZM18.9938 11.0585C18.8666 11.0726 18.7323 11.0797 18.6051 11.0797C17.199 11.0797 15.8847 10.3731 15.1074 9.19305V15.6232C15.1074 18.2518 12.9805 20.3787 10.3519 20.3787C7.72329 20.3787 5.59638 18.2518 5.59638 15.6232C5.59638 12.9946 7.72329 10.8677 10.3519 10.8677C10.4508 10.8677 10.5497 10.8748 10.6487 10.8819V13.2278C10.5497 13.2137 10.4579 13.1995 10.3519 13.1995C9.00933 13.1995 7.92821 14.2877 7.92821 15.6232C7.92821 16.9658 9.01639 18.0469 10.3519 18.0469C11.6945 18.0469 12.8745 16.9941 12.8745 15.6515L12.8957 4.72725H15.1357C15.3477 6.73403 16.9658 8.30978 18.9867 8.4511V11.0585H18.9938Z" fill="#B497CF"/>
</svg>
