<svg width="25" height="25" viewBox="0 0 25 25" fill="none" xmlns="http://www.w3.org/2000/svg">
<path d="M12.5 0C5.59638 0 0 5.59638 0 12.5C0 19.4036 5.59638 25 12.5 25C19.4036 25 25 19.4036 25 12.5C25 5.59638 19.4036 0 12.5 0ZM19.4601 8.23205C19.4601 8.26738 19.4601 8.35218 19.3895 8.4511C19.0715 8.88214 18.7253 9.26371 18.3013 9.58169C18.2377 9.63115 18.1388 9.67354 18.1388 9.7654C18.1388 12.0195 17.5664 14.2665 15.92 15.8988C13.8284 17.9763 10.6981 18.5415 7.91408 17.7713C7.36998 17.6159 6.85415 17.411 6.35953 17.1495C6.197 17.0577 6.03448 16.9658 5.87903 16.8669C5.83663 16.8315 5.80837 16.8033 5.8437 16.7821C5.87903 16.7679 5.90023 16.7609 6.02742 16.7821C6.80469 16.8598 7.61023 16.7397 8.34511 16.4853C8.74788 16.344 9.61701 16.0613 9.8714 15.6798C9.87846 15.6727 9.88553 15.6727 9.89259 15.6586C9.79367 15.6374 9.68768 15.6374 9.58875 15.6162C8.83267 15.3971 7.82222 15.0226 7.35585 13.7436C7.32759 13.6659 7.35585 13.6306 7.43358 13.6447C8.0554 13.6942 8.28152 13.6588 8.4935 13.6094C8.37337 13.5882 8.24618 13.5458 8.13313 13.4963C7.1792 13.136 6.48672 12.2032 6.35953 11.1998C6.34539 11.0868 6.33833 10.9878 6.33833 10.8748C6.34539 10.7971 6.37366 10.7759 6.44432 10.8183C6.93188 11.0726 7.48304 11.1292 7.52544 11.1221C7.40531 11.0302 7.29226 10.9243 7.1792 10.8183C6.35246 10.0339 6.03448 8.44404 6.69163 7.45478C6.74816 7.37705 6.78349 7.37705 6.84709 7.44771C8.35924 9.17185 10.2176 9.97032 12.4647 10.3095C12.5212 10.3166 12.5283 10.3095 12.5212 10.2459C12.4647 9.8502 12.4576 9.46156 12.5495 9.07292C12.6484 8.67015 12.8392 8.28858 13.1077 7.96354C13.3621 7.65263 13.68 7.39118 14.0404 7.20746C14.3937 7.02374 14.7894 6.91068 15.1922 6.88242C15.602 6.85415 16.026 6.92482 16.4076 7.08027C16.6973 7.2004 16.9587 7.36292 17.199 7.56783C17.2484 7.61023 17.2908 7.65969 17.3403 7.71622C17.3686 7.74449 17.4039 7.75862 17.4534 7.74449C18.0257 7.60317 18.5698 7.39825 19.0856 7.1156C19.1068 7.10147 19.128 7.0944 19.1563 7.10854C19.1775 7.12973 19.1704 7.158 19.1563 7.1792C19.0644 7.48304 18.8949 7.76569 18.697 8.013C18.5698 8.17552 18.2377 8.57829 18.0187 8.61362C18.485 8.5359 18.9655 8.41577 19.3966 8.21792C19.4531 8.18966 19.4531 8.18259 19.4531 8.21792C19.4601 8.21792 19.4601 8.22499 19.4601 8.23205Z" fill="#414E52"/>
</svg>
