<svg width="86" height="23" viewBox="0 0 86 23" fill="none" xmlns="http://www.w3.org/2000/svg">
<path d="M28.9431 13.8394L27.3225 15.648V20.0907H24.2323V7.70611C24.2323 5.93688 25.6267 4.48218 27.3225 4.48218V11.5591L28.6792 9.6326L32.4856 4.48218H36.2919L31.0158 11.4411L36.4803 20.13H32.7871L28.9431 13.8394Z" fill="#414E52"/>
<path d="M42.284 20.3267C40.6635 20.3267 39.3445 19.8156 38.2892 18.754C37.234 17.6925 36.7441 16.3164 36.7441 14.5865V14.272C36.7441 13.0925 36.9702 12.0703 37.3848 11.166C37.7993 10.2617 38.44 9.55402 39.2314 9.04291C40.0228 8.5318 40.9273 8.2959 41.9448 8.2959C43.4523 8.2959 44.6582 8.80701 45.525 9.78992C46.3918 10.7728 46.844 12.2275 46.844 14.0361V15.3335H39.759C39.8721 16.0805 40.1359 16.7096 40.6258 17.1421C41.1157 17.6138 41.7187 17.8104 42.4724 17.8104C43.603 17.8104 44.5075 17.3779 45.1481 16.513L46.6179 18.2036C46.1657 18.872 45.5627 19.3831 44.809 19.7369C44.0552 20.1301 43.2261 20.3267 42.284 20.3267ZM41.9448 10.8121C41.3418 10.8121 40.8896 11.0087 40.5127 11.4412C40.1359 11.8737 39.9098 12.4634 39.7967 13.2104H43.9422V12.9745C43.9422 12.2668 43.7538 11.7557 43.4146 11.3626C43.0754 10.9694 42.5855 10.8121 41.9448 10.8121Z" fill="#414E52"/>
<path d="M58.2253 15.8839L59.695 8.49243H62.5592L59.7327 20.0907H57.2454L55.135 12.7779L53.0246 20.0907H50.5373L47.7108 8.49243H50.575L52.007 15.8839L54.0421 8.49243H56.1902L58.2253 15.8839Z" fill="#414E52"/>
<path d="M63.539 14.1933C63.539 13.0532 63.7651 12.0309 64.1797 11.1267C64.5942 10.2224 65.2349 9.5147 66.0263 9.04291C66.8177 8.5318 67.7599 8.2959 68.8151 8.2959C70.3225 8.2959 71.5285 8.76769 72.4707 9.7506C73.4128 10.6942 73.9404 11.9916 74.0535 13.6429L74.0912 14.4292C74.0912 16.1985 73.6012 17.6532 72.6591 18.7147C71.7169 19.7762 70.4356 20.3267 68.8151 20.3267C67.1946 20.3267 65.9509 19.7762 64.9711 18.7147C64.0289 17.6532 63.539 16.1985 63.539 14.3506V14.1933ZM66.5162 14.4292C66.5162 15.5301 66.7047 16.3557 67.1192 16.9455C67.5338 17.5352 68.0991 17.8104 68.8151 17.8104C69.5311 17.8104 70.0964 17.5352 70.511 16.9455C70.9255 16.3557 71.114 15.4515 71.114 14.1933C71.114 13.0925 70.9255 12.2668 70.511 11.6771C70.0964 11.0874 69.5311 10.7728 68.8151 10.7728C68.0991 10.7728 67.5338 11.0874 67.1192 11.6771C66.7047 12.2668 66.5162 13.1711 66.5162 14.4292Z" fill="#414E52"/>
<path d="M75.4479 14.1933C75.4479 13.0532 75.674 12.0309 76.0885 11.1267C76.5031 10.2224 77.1438 9.5147 77.9352 9.04291C78.7266 8.5318 79.6687 8.2959 80.724 8.2959C82.2314 8.2959 83.4374 8.76769 84.3795 9.7506C85.3217 10.6942 85.8493 11.9916 85.9623 13.6429L86 14.4292C86 16.1985 85.5101 17.6532 84.568 18.7147C83.6258 19.7762 82.3445 20.3267 80.724 20.3267C79.1034 20.3267 77.8598 19.7762 76.88 18.7147C75.9378 17.6532 75.4479 16.1985 75.4479 14.3506V14.1933ZM78.4251 14.4292C78.4251 15.5301 78.6135 16.3557 79.0281 16.9455C79.4426 17.5352 80.0079 17.8104 80.724 17.8104C81.44 17.8104 82.0053 17.5352 82.4198 16.9455C82.8344 16.3557 83.0228 15.4515 83.0228 14.1933C83.0228 13.0925 82.8344 12.2668 82.4198 11.6771C82.0053 11.0874 81.44 10.7728 80.724 10.7728C80.0079 10.7728 79.4426 11.0874 79.0281 11.6771C78.6135 12.2668 78.4251 13.1711 78.4251 14.4292Z" fill="#414E52"/>
<path d="M10.9667 0V23C4.89921 23 0 17.8889 0 11.559V10.8906C0 8.49231 0.753725 6.25128 2.03506 4.44274C3.91937 1.72991 6.97196 0 10.4391 0H10.9667Z" fill="url(#paint0_linear)"/>
<path d="M20.1621 8.45299C19.4838 6.64444 17.0718 6.91966 16.5066 8.29573C16.0543 9.35726 14.6599 10.3795 13.1525 10.1436C11.9088 9.98632 10.9667 8.80684 10.9667 7.47008V0H13.2278C17.0342 0 20.1621 3.22393 20.1621 7.23419V8.45299Z" fill="#FEDC40"/>
<path d="M10.9667 0V6.09402C10.9667 8.33504 9.23314 10.1829 7.04733 10.1829H6.44435C3.99475 10.1829 1.99738 8.09915 1.99738 5.54359V4.44274C3.91937 1.72991 6.97196 0 10.4391 0H10.9667Z" fill="#FFF6D7"/>
<path d="M6.36897 6.91967C7.15988 6.91967 7.80105 6.25078 7.80105 5.42566C7.80105 4.60053 7.15988 3.93164 6.36897 3.93164C5.57805 3.93164 4.93689 4.60053 4.93689 5.42566C4.93689 6.25078 5.57805 6.91967 6.36897 6.91967Z" fill="#414E52"/>
<path d="M16.5065 8.2563C16.0543 9.31784 14.6599 10.3401 13.1525 10.1042C11.9088 9.9469 10.9667 8.76742 10.9667 7.43066V15.5691C14.5092 15.0187 17.2226 11.8341 17.2226 8.02041C17.2226 7.82383 17.2226 7.62725 17.1849 7.46998C16.8834 7.66656 16.6573 7.94178 16.5065 8.2563Z" fill="url(#paint1_linear)"/>
<defs>
<linearGradient id="paint0_linear" x1="-1.35419" y1="-12.8417" x2="15.9215" y2="-12.2643" gradientUnits="userSpaceOnUse">
<stop stop-color="#4A6F9C"/>
<stop offset="1" stop-color="#BE96E1"/>
</linearGradient>
<linearGradient id="paint1_linear" x1="14.2431" y1="6.34845" x2="13.2214" y2="17.0391" gradientUnits="userSpaceOnUse">
<stop stop-color="#ED7B13"/>
<stop offset="1" stop-color="#FEDC40"/>
</linearGradient>
</defs>
</svg>
