<svg width="11" height="12" viewBox="0 0 11 12" fill="none" xmlns="http://www.w3.org/2000/svg">
<circle cx="5.5" cy="5.5" r="5.15" stroke="#B497CF" stroke-width="0.7"/>
<path d="M5.94922 9H5.0459V3.7168H5.94922V9ZM4.97266 2.31543C4.97266 2.16895 5.0166 2.04525 5.10449 1.94434C5.19564 1.84342 5.3291 1.79297 5.50488 1.79297C5.68066 1.79297 5.81413 1.84342 5.90527 1.94434C5.99642 2.04525 6.04199 2.16895 6.04199 2.31543C6.04199 2.46191 5.99642 2.58398 5.90527 2.68164C5.81413 2.7793 5.68066 2.82812 5.50488 2.82812C5.3291 2.82812 5.19564 2.7793 5.10449 2.68164C5.0166 2.58398 4.97266 2.46191 4.97266 2.31543Z" fill="#B497CF"/>
</svg>
