<svg width="14" height="14" viewBox="0 0 14 14" fill="none" xmlns="http://www.w3.org/2000/svg">
<g clip-path="url(#clip0)">
<path d="M0.206419 5.31864C1.13481 1.56562 4.92957 -0.72228 8.68107 0.206492C12.4336 1.13456 14.7215 4.9287 13.7931 8.68101C12.8647 12.4333 9.07065 14.7219 5.31844 13.7932C1.56657 12.8647 -0.722684 9.07059 0.206419 5.31864Z" fill="#223C72"/>
<path d="M11.9653 2.06647L9.15109 3.94245V0.341154C8.99725 0.29188 8.84127 0.246859 8.68211 0.20751C7.36165 -0.119333 6.03624 -0.0473704 4.83206 0.346471V3.9428L2.02879 2.07427C1.38682 2.72122 0.865377 3.49969 0.510893 4.38131L1.25318 4.87619H0.333296C0.287213 5.02153 0.244675 5.16935 0.207454 5.31966C-0.121862 6.64936 -0.0467112 7.98438 0.354565 9.19533H1.27162L0.537124 9.68489C0.893381 10.5406 1.41695 11.3209 2.07771 11.976L4.83206 10.1401V13.6545C4.99157 13.7063 5.15393 13.753 5.31947 13.7938C6.63319 14.1192 7.95187 14.0494 9.15109 13.6609V10.1397L11.9164 11.9827C12.5658 11.3432 13.0965 10.5708 13.4609 9.6941L12.7112 9.19427H13.6463C13.7016 9.02659 13.7509 8.85537 13.7941 8.68096C14.1167 7.37678 14.0504 6.06728 13.6697 4.87512H12.73L13.4868 4.37068C13.1376 3.5121 12.6208 2.72689 11.9653 2.06647Z" fill="#EFEBE7"/>
<path d="M3.75548 4.87563L1.15675 3.14712C0.983763 3.40945 0.827436 3.68489 0.689541 3.97309L2.04615 4.87563H3.75548ZM12.8338 3.13365C12.6594 2.86991 12.4666 2.61822 12.2574 2.37965L9.15108 4.44563V4.87599H10.2149L12.8338 3.13365ZM1.17625 10.8797C1.35136 11.1427 1.54456 11.3941 1.75406 11.6319L4.83204 9.58472V9.19442H3.7101L1.17625 10.8797ZM13.8927 5.77498H8.25175V0.114788C7.39674 -0.0411887 6.54527 -0.0344533 5.73172 0.116206V5.77498H0.111023C-0.0421143 6.63002 -0.0318342 7.48116 0.121657 8.29401H5.73172V13.8822C6.58674 14.0407 7.43821 14.0361 8.25175 13.8876V8.29401H13.8785C14.0398 7.44003 14.0376 6.5889 13.8927 5.77498ZM10.2751 9.19478L12.8218 10.8885C12.9962 10.6273 13.1539 10.3526 13.2936 10.0654L11.9845 9.19478H10.2751Z" fill="#EF3827"/>
<path d="M9.15027 1.06885V1.0692V1.5226C9.17792 1.43646 9.1921 1.35492 9.19245 1.27835C9.19245 1.20356 9.17863 1.13337 9.15027 1.06885Z" fill="#303F66"/>
</g>
<defs>
<clipPath id="clip0">
<rect width="14" height="14" fill="white"/>
</clipPath>
</defs>
</svg>
