<svg width="22" height="22" viewBox="0 0 22 22" fill="none" xmlns="http://www.w3.org/2000/svg">
<circle cx="11" cy="11" r="11" fill="#D2D2D2"/>
<path d="M17.8305 6.14589H15.1384L14.9689 5.7292C14.7885 5.28608 14.3624 5 13.8849 5H9.11509C8.63764 5 8.21151 5.28608 8.03266 5.72765L7.86314 6.14434H5.16952C4.52411 6.14589 4 6.66986 4 7.31511V15.8308C4 16.476 4.52411 17 5.16952 17H17.8305C18.4759 17 19 16.476 19 15.8308V7.31511C19 6.66986 18.4743 6.14589 17.8305 6.14589ZM17.9114 15.8308C17.9114 15.8759 17.8756 15.9116 17.8305 15.9116H5.16952C5.12442 15.9116 5.08865 15.8759 5.08865 15.8308V7.31511C5.08865 7.27002 5.12442 7.23426 5.16952 7.23426H8.59409L9.04044 6.13967C9.05132 6.10858 9.08087 6.08836 9.11509 6.08836H13.8849C13.9176 6.08836 13.9471 6.10858 13.9596 6.13812L14.4059 7.2327H17.8289C17.874 7.2327 17.9098 7.26846 17.9098 7.31355V15.8308H17.9114Z" fill="white"/>
<path d="M7.72804 7.79395H5.62695V9.79187H7.72804V7.79395ZM7.06086 9.12486H6.29569V8.46251H7.06086V9.12486Z" fill="white"/>
<path d="M11.4993 8.94604C10.0514 8.94604 8.87256 10.1246 8.87256 11.5721C8.87256 13.0196 10.0514 14.1982 11.4993 14.1982C12.9472 14.1982 14.1261 13.0196 14.1261 11.5721C14.1261 10.1246 12.9488 8.94604 11.4993 8.94604ZM11.4993 13.5545C10.406 13.5545 9.51797 12.6651 9.51797 11.5737C9.51797 10.4806 10.4076 9.59284 11.4993 9.59284C12.5926 9.59284 13.4806 10.4822 13.4806 11.5737C13.4822 12.6651 12.5926 13.5545 11.4993 13.5545Z" fill="white"/>
<path d="M11.4992 7.64624C9.33432 7.64624 7.57227 9.40784 7.57227 11.5721C7.57227 13.7364 9.33432 15.498 11.4992 15.498C13.664 15.498 15.4261 13.7364 15.4261 11.5721C15.4261 9.40784 13.6656 7.64624 11.4992 7.64624ZM11.4992 14.5356C9.86465 14.5356 8.53494 13.2062 8.53494 11.5737C8.53494 9.94114 9.86465 8.61178 11.4992 8.61178C13.1337 8.61178 14.4618 9.94114 14.4618 11.5737C14.4618 13.2062 13.1337 14.5356 11.4992 14.5356Z" fill="white"/>
</svg>
