<svg width="22" height="21" viewBox="0 0 22 21" fill="none" xmlns="http://www.w3.org/2000/svg">
<path d="M22 19.7446L15.4239 13.4674C16.7391 11.9837 17.337 10.1576 17.337 8.21739C17.337 6.04891 16.3804 3.88043 14.8261 2.39674C11.4783 -0.798913 5.97826 -0.798913 2.51087 2.39674C0.956522 3.99457 0 6.04891 0 8.33152C0 10.6141 0.956522 12.6685 2.51087 14.1522C4.18478 15.75 6.33696 16.5489 8.6087 16.5489C10.6413 16.5489 12.5543 15.8641 14.1087 14.7228L20.6848 21L22 19.7446ZM3.82609 12.8967C2.51087 11.6413 1.79348 10.0435 1.79348 8.21739C1.79348 6.50543 2.51087 4.79348 3.82609 3.53804C5.1413 2.28261 6.81522 1.59783 8.72826 1.59783C10.5217 1.59783 12.3152 2.28261 13.6304 3.53804C14.9457 4.79348 15.5435 6.50543 15.5435 8.33152C15.5435 10.0435 14.8261 11.7554 13.5109 13.0109C12.1957 14.2663 10.5217 14.837 8.72826 14.837C6.81522 14.837 5.1413 14.1522 3.82609 12.8967Z" fill="#414E52"/>
</svg>
